# xmcd
#
# Track frame offsets:
#	150
#	13312
#	30814
#	42214
#	53812
#	66298
#	81902
#	89378
#	101465
#	115025
#	125726
#	134447
#	145209
#	156643
#
# Disc length: 2243 seconds
#
# Revision: 0
# Processed by: cddbd v1.5.2PL0 Copyright (c) Steve Scherf et al.
# Submitted via: dBpowerAMP V4.0
#
DISCID=c008c10e
DTITLE=Woog Riots - From Lo-Fi To Disco!
DYEAR=2013
DGENRE=Pop
TTITLE0=From Lo-Fi To Disco!
TTITLE1=My Andy Warhol Poster
TTITLE2=Counterculture (first take)
TTITLE3=Too Funk To Drug
TTITLE4=Uranus
TTITLE5=Sounds And Visions
TTITLE6=Why Are You A Skinhead Now?
TTITLE7=Take The Skinheads Bowling
TTITLE8=We Are Not Houston
TTITLE9=Fortune Teller Hotline
TTITLE10=Attentato
TTITLE11=Friends Of Mine
TTITLE12=Jungbrunnen
TTITLE13=Under The X-Mas Treeee
EXTD=
EXTT0=
EXTT1=
EXTT2=
EXTT3=
EXTT4=
EXTT5=
EXTT6=
EXTT7=
EXTT8=
EXTT9=
EXTT10=
EXTT11=
EXTT12=
EXTT13=
PLAYORDER=
